# xmcd CD database file generated by OrangeCD 6.4
#
# Track frame offsets:
#	150
#	5171
#	14890
#	30693
#	58325
#	105952
#	115164
#	132904
#	157111
#
# Disc length: 2454 seconds
#
# Revision: 0
# Processed by: cddbd v1.5.2PL0 Copyright (c) Steve Scherf et al.
# Submitted via: OrangeCD 6.4
#
DISCID=7a099409
DTITLE=Jimi Hendrix - Hendrix Live In Scandinavia Vol. 1
DYEAR=2007
DGENRE=Blues Rock
TTITLE0=Introduction
TTITLE1=Sgt. Pepper's Lonely Hearts Club Band
TTITLE2=Fire
TTITLE3=Hey Joe
TTITLE4=Catfish Blues
TTITLE5=The Wind Cries Mary
TTITLE6=Purple Haze
TTITLE7=Spanish Castle Magic
TTITLE8=Wild Thing
EXTD=Tivolis Konsertsaal, Copenhagen, Denmark 1968-01-07, 1st show
EXTT0=
EXTT1=
EXTT2=
EXTT3=
EXTT4=
EXTT5=
EXTT6=
EXTT7=
EXTT8=
PLAYORDER=
